<svg width="24" height="24" viewBox="0 0 24 24" fill="none" xmlns="http://www.w3.org/2000/svg">
<g clip-path="url(#clip0_97_2)">
<path fill-rule="evenodd" clip-rule="evenodd" d="M21.6 0H2.4C1.08 0 0.012 1.08 0.012 2.4L0 24L4.8 19.2H21.6C22.92 19.2 24 18.12 24 16.8V2.4C24 1.08 22.92 0 21.6 0ZM21.6 16.8H3.804L3.096 17.508L2.4 18.204V2.4H21.6V16.8ZM10.2 14.4H19.2V12H12.6L10.2 14.4ZM14.832 7.356C15.072 7.116 15.072 6.744 14.832 6.504L12.708 4.38C12.468 4.14 12.096 4.14 11.856 4.38L4.8 11.436V14.4H7.764L14.832 7.356Z" fill="white"/>
</g>
<defs>
<clipPath id="clip0_97_2">
<rect width="24" height="24" fill="white"/>
</clipPath>
</defs>
</svg>
